<svg width="128" height="54" viewBox="0 0 128 54" fill="none" xmlns="http://www.w3.org/2000/svg">
<g clip-path="url(#clip0_1_2)">
<path d="M97.5 9L107.459 26.25H87.5407L97.5 9Z" fill="#D9D9D9"/>
<path d="M109.5 0L127.254 30.75H91.7465L109.5 0Z" fill="#8D8D8D"/>
<path d="M80.767 30.6534C80.0284 30.6534 79.3939 30.553 78.8636 30.3523C78.3333 30.1553 77.9072 29.8901 77.5852 29.5568C77.2633 29.2235 77.0398 28.8542 76.9148 28.4489L78.767 28C78.8504 28.1705 78.9716 28.339 79.1307 28.5057C79.2898 28.6761 79.5038 28.8163 79.7727 28.9261C80.0455 29.0398 80.3883 29.0966 80.8011 29.0966C81.3845 29.0966 81.8674 28.9545 82.25 28.6705C82.6326 28.3901 82.8239 27.928 82.8239 27.2841L82.8239 25.6307L82.7216 25.6307C82.6155 25.8428 82.4602 26.0606 82.2557 26.2841C82.0549 26.5076 81.7879 26.6951 81.4545 26.8466C81.125 26.9981 80.7102 27.0739 80.2102 27.0739C79.5398 27.0739 78.9318 26.9167 78.3864 26.6023C77.8447 26.2841 77.4129 25.8106 77.0909 25.1818C76.7727 24.5492 76.6136 23.7576 76.6136 22.8068C76.6136 21.8485 76.7727 21.0398 77.0909 20.3807C77.4129 19.7178 77.8466 19.2159 78.392 18.875C78.9375 18.5303 79.5455 18.358 80.2159 18.358C80.7273 18.358 81.1477 18.4451 81.4773 18.6193C81.8106 18.7898 82.0758 18.9962 82.2727 19.2386C82.4697 19.4773 82.6193 19.7026 82.7216 19.9148L82.8352 19.9148L82.8352 18.4716L84.8636 18.4716L84.8636 27.3409C84.8636 28.0871 84.6856 28.7045 84.3295 29.1932C83.9735 29.6818 83.4867 30.0473 82.8693 30.2898C82.2519 30.5322 81.5511 30.6534 80.767 30.6534ZM80.7841 25.4602C81.2197 25.4602 81.5909 25.3542 81.8977 25.142C82.2045 24.9299 82.4375 24.625 82.5966 24.2273C82.7557 23.8295 82.8352 23.3523 82.8352 22.7955C82.8352 22.2462 82.7557 21.7651 82.5966 21.3523C82.4413 20.9394 82.2102 20.6193 81.9034 20.392C81.6004 20.161 81.2273 20.0455 80.7841 20.0455C80.3258 20.0455 79.9432 20.1648 79.6364 20.4034C79.3295 20.642 79.0985 20.9697 78.9432 21.3864C78.7879 21.7992 78.7102 22.2689 78.7102 22.7955C78.7102 23.3295 78.7879 23.7973 78.9432 24.1989C79.1023 24.5966 79.3352 24.9072 79.642 25.1307C79.9527 25.3504 80.3333 25.4602 80.7841 25.4602Z" fill="white"/>
<path d="M69.2784 22.0852L69.2784 27.1989L67.2216 27.1989L67.2216 18.4716L69.1875 18.4716L69.1875 19.9545L69.2898 19.9545C69.4905 19.4659 69.8106 19.0776 70.25 18.7898C70.6932 18.5019 71.2405 18.358 71.892 18.358C72.4943 18.358 73.0189 18.4867 73.4659 18.7443C73.9167 19.0019 74.2651 19.375 74.5114 19.8636C74.7614 20.3523 74.8845 20.9451 74.8807 21.642L74.8807 27.1989L72.8239 27.1989L72.8239 21.9602C72.8239 21.3769 72.6723 20.9205 72.3693 20.5909C72.0701 20.2614 71.6553 20.0966 71.125 20.0966C70.7652 20.0966 70.4451 20.1761 70.1648 20.3352C69.8883 20.4905 69.6705 20.7159 69.5114 21.0114C69.3561 21.3068 69.2784 21.6648 69.2784 22.0852Z" fill="white"/>
<path d="M63.0497 27.1989L63.0497 18.4716L65.1065 18.4716L65.1065 27.1989L63.0497 27.1989ZM64.0838 17.233C63.7581 17.233 63.4777 17.125 63.2429 16.9091C63.008 16.6894 62.8906 16.4261 62.8906 16.1193C62.8906 15.8087 63.008 15.5455 63.2429 15.3295C63.4777 15.1098 63.7581 15 64.0838 15C64.4134 15 64.6937 15.1098 64.9247 15.3295C65.1596 15.5455 65.277 15.8087 65.277 16.1193C65.277 16.4261 65.1596 16.6894 64.9247 16.9091C64.6937 17.125 64.4134 17.233 64.0838 17.233Z" fill="white"/>
<path d="M53.0497 30.4716L53.0497 18.4716L55.0724 18.4716L55.0724 19.9148L55.1918 19.9148C55.2978 19.7026 55.4474 19.4773 55.6406 19.2386C55.8338 18.9962 56.0952 18.7898 56.4247 18.6193C56.7543 18.4451 57.1747 18.358 57.6861 18.358C58.3603 18.358 58.9683 18.5303 59.5099 18.875C60.0554 19.2159 60.4872 19.7216 60.8054 20.392C61.1274 21.0587 61.2884 21.8769 61.2884 22.8466C61.2884 23.8049 61.1312 24.6193 60.8168 25.2898C60.5024 25.9602 60.0743 26.4716 59.5327 26.8239C58.991 27.1761 58.3774 27.3523 57.6918 27.3523C57.1918 27.3523 56.777 27.2689 56.4474 27.1023C56.1179 26.9356 55.8527 26.7348 55.652 26.5C55.455 26.2614 55.3016 26.036 55.1918 25.8239L55.1065 25.8239L55.1065 30.4716L53.0497 30.4716ZM55.0668 22.8352C55.0668 23.3996 55.1463 23.8939 55.3054 24.3182C55.4683 24.7424 55.7012 25.0739 56.0043 25.3125C56.3111 25.5473 56.6823 25.6648 57.1179 25.6648C57.5724 25.6648 57.9531 25.5436 58.2599 25.3011C58.5668 25.0549 58.7978 24.7197 58.9531 24.2955C59.1122 23.8674 59.1918 23.3807 59.1918 22.8352C59.1918 22.2936 59.1141 21.8125 58.9588 21.392C58.8035 20.9716 58.5724 20.642 58.2656 20.4034C57.9588 20.1648 57.5762 20.0455 57.1179 20.0455C56.6785 20.0455 56.3054 20.161 55.9986 20.392C55.6918 20.6231 55.4588 20.947 55.2997 21.3636C55.1444 21.7803 55.0668 22.2708 55.0668 22.8352Z" fill="white"/>
<path d="M47.1222 27.3693C46.2699 27.3693 45.5313 27.1818 44.9063 26.8068C44.2813 26.4318 43.7964 25.9072 43.4517 25.233C43.1108 24.5587 42.9403 23.7708 42.9403 22.8693C42.9403 21.9678 43.1108 21.178 43.4517 20.5C43.7964 19.822 44.2813 19.2955 44.9063 18.9205C45.5313 18.5455 46.2699 18.358 47.1222 18.358C47.9744 18.358 48.7131 18.5455 49.3381 18.9205C49.9631 19.2955 50.446 19.822 50.7869 20.5C51.1316 21.178 51.304 21.9678 51.304 22.8693C51.304 23.7708 51.1316 24.5587 50.7869 25.233C50.446 25.9072 49.9631 26.4318 49.3381 26.8068C48.7131 27.1818 47.9744 27.3693 47.1222 27.3693ZM47.1335 25.7216C47.5956 25.7216 47.982 25.5947 48.2926 25.3409C48.6032 25.0833 48.8343 24.7386 48.9858 24.3068C49.1411 23.875 49.2188 23.3939 49.2188 22.8636C49.2188 22.3295 49.1411 21.8466 48.9858 21.4148C48.8343 20.9792 48.6032 20.6326 48.2926 20.375C47.982 20.1174 47.5956 19.9886 47.1335 19.9886C46.66 19.9886 46.2661 20.1174 45.9517 20.375C45.6411 20.6326 45.4081 20.9792 45.2528 21.4148C45.1013 21.8466 45.0256 22.3295 45.0256 22.8636C45.0256 23.3939 45.1013 23.875 45.2528 24.3068C45.4081 24.7386 45.6411 25.0833 45.9517 25.3409C46.2661 25.5947 46.66 25.7216 47.1335 25.7216Z" fill="white"/>
<path d="M41.2003 15.5625L41.2003 27.1989L39.1435 27.1989L39.1435 15.5625L41.2003 15.5625Z" fill="white"/>
<path d="M33.5227 27.3693C32.6477 27.3693 31.892 27.1875 31.2557 26.8239C30.6231 26.4564 30.1364 25.9375 29.7955 25.267C29.4545 24.5928 29.2841 23.7992 29.2841 22.8864C29.2841 21.9886 29.4545 21.2008 29.7955 20.5227C30.1401 19.8409 30.6212 19.3106 31.2386 18.9318C31.8561 18.5492 32.5814 18.358 33.4148 18.358C33.9526 18.358 34.4602 18.4451 34.9375 18.6193C35.4186 18.7898 35.8428 19.0549 36.2102 19.4148C36.5814 19.7746 36.8731 20.233 37.0852 20.7898C37.2973 21.3428 37.4034 22.0019 37.4034 22.767L37.4034 23.3977L30.25 23.3977L30.25 22.0114L35.4318 22.0114C35.428 21.6174 35.3428 21.267 35.1761 20.9602C35.0095 20.6496 34.7765 20.4053 34.4773 20.2273C34.1818 20.0492 33.8371 19.9602 33.4432 19.9602C33.0227 19.9602 32.6534 20.0625 32.3352 20.267C32.017 20.4678 31.7689 20.733 31.5909 21.0625C31.4167 21.3883 31.3276 21.7462 31.3239 22.1364L31.3239 23.3466C31.3239 23.8542 31.4167 24.2898 31.6023 24.6534C31.7879 25.0133 32.0473 25.2898 32.3807 25.483C32.714 25.6723 33.1042 25.767 33.5511 25.767C33.8504 25.767 34.1212 25.7254 34.3636 25.642C34.6061 25.5549 34.8163 25.428 34.9943 25.2614C35.1723 25.0947 35.3068 24.8883 35.3977 24.642L37.3182 24.858C37.197 25.3655 36.9659 25.8087 36.625 26.1875C36.2879 26.5625 35.8561 26.8542 35.3295 27.0625C34.803 27.267 34.2008 27.3693 33.5227 27.3693Z" fill="white"/>
<path d="M28.5327 18.4716L25.4247 27.1989L23.152 27.1989L20.044 18.4716L22.2372 18.4716L24.2429 24.9545L24.3338 24.9545L26.3452 18.4716L28.5327 18.4716Z" fill="white"/>
<path d="M15.3665 27.3693C14.4915 27.3693 13.7358 27.1875 13.0994 26.8239C12.4669 26.4564 11.9801 25.9375 11.6392 25.267C11.2983 24.5928 11.1278 23.7992 11.1278 22.8864C11.1278 21.9886 11.2983 21.2008 11.6392 20.5227C11.9839 19.8409 12.465 19.3106 13.0824 18.9318C13.6998 18.5492 14.4252 18.358 15.2585 18.358C15.7964 18.358 16.304 18.4451 16.7813 18.6193C17.2623 18.7898 17.6866 19.0549 18.054 19.4148C18.4252 19.7746 18.7169 20.233 18.929 20.7898C19.1411 21.3428 19.2472 22.0019 19.2472 22.767L19.2472 23.3977L12.0938 23.3977L12.0938 22.0114L17.2756 22.0114C17.2718 21.6174 17.1866 21.267 17.0199 20.9602C16.8532 20.6496 16.6203 20.4053 16.321 20.2273C16.0256 20.0492 15.6809 19.9602 15.2869 19.9602C14.8665 19.9602 14.4972 20.0625 14.179 20.267C13.8608 20.4678 13.6127 20.733 13.4347 21.0625C13.2604 21.3883 13.1714 21.7462 13.1676 22.1364L13.1676 23.3466C13.1676 23.8542 13.2604 24.2898 13.446 24.6534C13.6316 25.0133 13.8911 25.2898 14.2244 25.483C14.5578 25.6723 14.9479 25.767 15.3949 25.767C15.6941 25.767 15.965 25.7254 16.2074 25.642C16.4498 25.5549 16.66 25.428 16.8381 25.2614C17.0161 25.0947 17.1506 24.8883 17.2415 24.642L19.1619 24.858C19.0407 25.3655 18.8097 25.8087 18.4688 26.1875C18.1316 26.5625 17.6998 26.8542 17.1733 27.0625C16.6468 27.267 16.0445 27.3693 15.3665 27.3693Z" fill="white"/>
<path d="M3.94318 27.1989L2.1759e-07 27.1989L0 15.5625L4.02273 15.5625C5.17803 15.5625 6.17046 15.7955 7 16.2614C7.83333 16.7235 8.47349 17.3883 8.92046 18.2557C9.36743 19.1231 9.59091 20.161 9.59091 21.3693C9.59091 22.5814 9.36553 23.6231 8.91477 24.4943C8.4678 25.3655 7.82197 26.0341 6.97727 26.5C6.13636 26.9659 5.125 27.1989 3.94318 27.1989ZM2.10795 25.375L3.84091 25.375C4.65152 25.375 5.32765 25.2273 5.86932 24.9318C6.41098 24.6326 6.81818 24.1875 7.09091 23.5966C7.36364 23.0019 7.5 22.2595 7.5 21.3693C7.5 20.4792 7.36364 19.7405 7.09091 19.1534C6.81818 18.5625 6.41477 18.1212 5.88068 17.8295C5.35038 17.5341 4.69129 17.3864 3.90341 17.3864L2.10795 17.3864L2.10795 25.375Z" fill="white"/>
<path d="M109.723 44.3991L109.723 53.348L106.124 53.348L106.124 38.0753L109.564 38.0753L109.564 40.6705L109.743 40.6705C110.094 39.8153 110.654 39.1359 111.423 38.6321C112.199 38.1283 113.157 37.8764 114.297 37.8764C115.351 37.8764 116.269 38.1018 117.051 38.5526C117.84 39.0033 118.45 39.6562 118.881 40.5114C119.318 41.3665 119.534 42.4039 119.527 43.6236L119.527 53.348L115.928 53.348L115.928 44.1804C115.928 43.1596 115.662 42.3608 115.132 41.7841C114.608 41.2074 113.883 40.919 112.955 40.919C112.325 40.919 111.765 41.0582 111.274 41.3366C110.79 41.6084 110.409 42.0028 110.131 42.5199C109.859 43.0369 109.723 43.6634 109.723 44.3991Z" fill="white"/>
<path d="M94.4403 53.6562C93.4725 53.6562 92.6009 53.4839 91.8253 53.1392C91.0563 52.7879 90.4465 52.2708 89.9957 51.5881C89.5516 50.9053 89.3295 50.0634 89.3295 49.0625C89.3295 48.2008 89.4886 47.4882 89.8068 46.9247C90.125 46.3613 90.5592 45.9105 91.1094 45.5724C91.6596 45.2344 92.2794 44.9792 92.9688 44.8068C93.6648 44.6278 94.384 44.4986 95.1264 44.419C96.0213 44.3262 96.7472 44.2434 97.304 44.1705C97.8608 44.0909 98.2652 43.9716 98.517 43.8125C98.7756 43.6468 98.9048 43.3916 98.9048 43.0469L98.9048 42.9872C98.9048 42.2382 98.6828 41.6581 98.2386 41.2472C97.7945 40.8362 97.1548 40.6307 96.3196 40.6307C95.438 40.6307 94.7386 40.8229 94.2216 41.2074C93.7112 41.5919 93.3665 42.0459 93.1875 42.5696L89.8267 42.0923C90.0919 41.1643 90.5294 40.3887 91.1392 39.7656C91.7491 39.1359 92.4948 38.6652 93.3764 38.3537C94.258 38.0355 95.2325 37.8764 96.2997 37.8764C97.0355 37.8764 97.768 37.9626 98.4972 38.1349C99.2263 38.3073 99.8925 38.5923 100.496 38.9901C101.099 39.3812 101.583 39.9148 101.947 40.5909C102.319 41.267 102.504 42.1122 102.504 43.1264L102.504 53.348L99.044 53.348L99.044 51.25L98.9247 51.25C98.706 51.6742 98.3977 52.072 98 52.4432C97.6089 52.8078 97.1151 53.1027 96.5185 53.3281C95.9285 53.5469 95.2358 53.6562 94.4403 53.6562ZM95.375 51.0114C96.0975 51.0114 96.724 50.8688 97.2543 50.5838C97.7846 50.2921 98.1922 49.9077 98.4773 49.4304C98.7689 48.9531 98.9148 48.4328 98.9148 47.8693L98.9148 46.0696C98.8021 46.1624 98.6098 46.2486 98.3381 46.3281C98.0729 46.4077 97.7746 46.4773 97.4432 46.5369C97.1117 46.5966 96.7836 46.6496 96.4588 46.696C96.134 46.7424 95.8523 46.7822 95.6136 46.8153C95.0767 46.8883 94.5961 47.0076 94.1719 47.1733C93.7476 47.339 93.4129 47.571 93.1676 47.8693C92.9223 48.161 92.7997 48.5388 92.7997 49.0028C92.7997 49.6657 93.0417 50.1662 93.5256 50.5043C94.0095 50.8423 94.6259 51.0114 95.375 51.0114Z" fill="white"/>
<path d="M82.7447 53.348L82.7447 38.0753L86.3441 38.0753L86.3441 53.348L82.7447 53.348ZM84.5543 35.9077C83.9843 35.9077 83.4937 35.7188 83.0827 35.3409C82.6718 34.9564 82.4663 34.4957 82.4663 33.9588C82.4663 33.4152 82.6718 32.9545 83.0827 32.5767C83.4937 32.1922 83.9843 32 84.5543 32C85.131 32 85.6216 32.1922 86.0259 32.5767C86.4369 32.9545 86.6424 33.4152 86.6424 33.9588C86.6424 34.4957 86.4369 34.9564 86.0259 35.3409C85.6216 35.7188 85.131 35.9077 84.5543 35.9077Z" fill="white"/>
<path d="M79.7344 38.0753L79.7344 40.8594L70.9545 40.8594L70.9545 38.0753L79.7344 38.0753ZM73.1222 34.4162L76.7216 34.4162L76.7216 48.7543C76.7216 49.2382 76.7945 49.6094 76.9403 49.8679C77.0928 50.1198 77.2917 50.2921 77.5369 50.3849C77.7822 50.4778 78.054 50.5242 78.3523 50.5242C78.5777 50.5242 78.7831 50.5076 78.9688 50.4744C79.161 50.4413 79.3068 50.4115 79.4063 50.3849L80.0128 53.1989C79.8206 53.2652 79.5455 53.3381 79.1875 53.4176C78.8362 53.4972 78.4053 53.5436 77.8949 53.5568C76.9934 53.5833 76.1813 53.4474 75.4588 53.1492C74.7363 52.8442 74.1629 52.3736 73.7386 51.7372C73.321 51.1009 73.1155 50.3054 73.1222 49.3509L73.1222 34.4162Z" fill="white"/>
<path d="M68.8118 42.1122L65.5305 42.4702C65.4377 42.1387 65.2753 41.8272 65.0433 41.5355C64.8179 41.2438 64.513 41.0085 64.1285 40.8295C63.7441 40.6506 63.2734 40.5611 62.7166 40.5611C61.9676 40.5611 61.3378 40.7235 60.8274 41.0483C60.3236 41.3731 60.075 41.794 60.0817 42.3111C60.075 42.7552 60.2375 43.1165 60.5689 43.3949C60.907 43.6733 61.4638 43.902 62.2393 44.081L64.8445 44.6378C66.2895 44.9493 67.3634 45.4432 68.066 46.1193C68.7753 46.7955 69.1333 47.6804 69.1399 48.7741C69.1333 49.7353 68.8516 50.5838 68.2947 51.3196C67.7446 52.0488 66.9789 52.6188 65.9979 53.0298C65.0168 53.4408 63.8899 53.6463 62.6172 53.6463C60.7479 53.6463 59.2431 53.2552 58.103 52.473C56.9628 51.6842 56.2834 50.5871 56.0646 49.1818L59.5746 48.8437C59.7337 49.5331 60.0717 50.0535 60.5888 50.4048C61.1058 50.7562 61.7786 50.9318 62.6072 50.9318C63.4624 50.9318 64.1484 50.7562 64.6655 50.4048C65.1892 50.0535 65.451 49.6193 65.451 49.1023C65.451 48.6648 65.282 48.3035 64.9439 48.0185C64.6125 47.7334 64.0954 47.5147 63.3928 47.3622L60.7876 46.8153C59.3227 46.5104 58.2389 45.9967 57.5362 45.2741C56.8336 44.545 56.4856 43.6236 56.4922 42.5099C56.4856 41.5687 56.7408 40.7533 57.2578 40.0639C57.7815 39.3679 58.5073 38.831 59.4354 38.4531C60.37 38.0687 61.4472 37.8764 62.6669 37.8764C64.4567 37.8764 65.8653 38.2576 66.8928 39.0199C67.9268 39.7822 68.5665 40.813 68.8118 42.1122Z" fill="white"/>
<path d="M49.44 53.348L49.44 38.0753L53.0394 38.0753L53.0394 53.348L49.44 53.348ZM51.2496 35.9077C50.6796 35.9077 50.189 35.7188 49.7781 35.3409C49.3671 34.9564 49.1616 34.4957 49.1616 33.9588C49.1616 33.4152 49.3671 32.9545 49.7781 32.5767C50.189 32.1922 50.6796 32 51.2496 32C51.8263 32 52.3169 32.1922 52.7212 32.5767C53.1322 32.9545 53.3377 33.4152 53.3377 33.9588C53.3377 34.4957 53.1322 34.9564 52.7212 35.3409C52.3169 35.7188 51.8263 35.9077 51.2496 35.9077Z" fill="white"/>
<path d="M38.3384 53.348L38.3384 38.0753L41.8285 38.0753L41.8285 40.6207L41.9876 40.6207C42.266 39.7391 42.7433 39.0597 43.4194 38.5824C44.1022 38.0985 44.881 37.8565 45.756 37.8565C45.9549 37.8565 46.177 37.8665 46.4222 37.8864C46.6741 37.8996 46.8829 37.9228 47.0486 37.956L47.0486 41.267C46.8962 41.214 46.6542 41.1676 46.3228 41.1278C45.998 41.0814 45.6831 41.0582 45.3782 41.0582C44.7219 41.0582 44.132 41.2008 43.6083 41.4858C43.0913 41.7642 42.6836 42.152 42.3853 42.6492C42.087 43.1463 41.9379 43.7197 41.9379 44.3693L41.9379 53.348L38.3384 53.348Z" fill="white"/>
<path d="M24.766 44.3991L24.766 53.348L21.1666 53.348L21.1665 32.9844L24.6864 32.9844L24.6864 40.6705L24.8654 40.6705C25.2234 39.8087 25.7769 39.1293 26.5259 38.6321C27.2816 38.1283 28.2428 37.8764 29.4094 37.8764C30.4701 37.8764 31.3948 38.0985 32.1836 38.5426C32.9724 38.9867 33.5823 39.6364 34.0131 40.4915C34.4506 41.3466 34.6694 42.3906 34.6694 43.6236L34.6694 53.348L31.07 53.348L31.07 44.1804C31.07 43.1529 30.8048 42.3542 30.2745 41.7841C29.7508 41.2074 29.015 40.919 28.0671 40.919C27.4308 40.919 26.8607 41.0582 26.3569 41.3366C25.8597 41.6084 25.4686 42.0028 25.1836 42.5199C24.9052 43.0369 24.766 43.6634 24.766 44.3991Z" fill="white"/>
<path d="M17.9474 39.8551L14.2287 39.8551C14.1226 39.2453 13.9271 38.705 13.642 38.2344C13.357 37.7571 13.0024 37.3528 12.5781 37.0213C12.1539 36.6899 11.67 36.4413 11.1264 36.2756C10.5895 36.1032 10.0095 36.0171 9.38636 36.0171C8.27936 36.0171 7.2983 36.2955 6.44318 36.8523C5.58807 37.4025 4.91856 38.2112 4.43466 39.2784C3.95076 40.339 3.70881 41.6349 3.70881 43.1662C3.70881 44.724 3.95076 46.0365 4.43466 47.1037C4.92519 48.1643 5.5947 48.9664 6.44318 49.5099C7.2983 50.0469 8.27604 50.3153 9.37642 50.3153C9.98627 50.3153 10.5563 50.2358 11.0866 50.0767C11.6236 49.911 12.1042 49.669 12.5284 49.3509C12.9593 49.0327 13.3205 48.6416 13.6122 48.1776C13.9105 47.7135 14.116 47.1832 14.2287 46.5867L17.9474 46.6065C17.8082 47.5743 17.5066 48.4825 17.0426 49.331C16.5852 50.1795 15.9853 50.9285 15.2429 51.5781C14.5005 52.2211 13.6321 52.7249 12.6378 53.0895C11.6435 53.4474 10.5398 53.6264 9.32671 53.6264C7.53693 53.6264 5.93939 53.2121 4.53409 52.3835C3.12879 51.5549 2.02178 50.3584 1.21307 48.794C0.404356 47.2296 2.36502e-07 45.3537 1.95597e-07 43.1662C1.54569e-07 40.9721 0.407671 39.0961 1.22301 37.5384C2.03835 35.974 3.14867 34.7775 4.55398 33.9489C5.95928 33.1203 7.55019 32.706 9.3267 32.706C10.4602 32.706 11.5142 32.8651 12.4886 33.1832C13.4631 33.5014 14.3314 33.9688 15.0938 34.5852C15.8561 35.1951 16.4825 35.9441 16.973 36.8324C17.4702 37.714 17.795 38.7216 17.9474 39.8551Z" fill="white"/>
</g>
<defs>
<clipPath id="clip0_1_2">
<rect width="128" height="54" fill="white"/>
</clipPath>
</defs>
</svg>
